<svg xmlns="http://www.w3.org/2000/svg" viewBox="0 0 32 32" width="32" height="32">
	<style>
		tspan { white-space:pre }
		.shp0 { fill: #bdd1df } 
		.shp1 { fill: #ffffff } 
	</style>
	<g id="Team">
		<g id="1">
			<g id="Contacts">
				<g id="Fb icon">
					<path id="base" class="shp0" d="M16 0C24.84 0 32 7.16 32 16C32 24.84 24.84 32 16 32C7.16 32 0 24.84 0 16C0 7.16 7.16 0 16 0Z" />
					<path id="Facebook Icon" class="shp1" d="M18.98 8.94L17.33 8.94C17.33 8.94 14.01 8.69 14.01 12.18C14.01 12.93 14.01 13.99 14.01 13.99L12.02 13.99L12.02 16L14.01 16L13.98 24.01L17.01 24.01L17.01 16.03L18.75 16L19.38 13.99L16.98 13.99L16.98 11.93C16.98 11.93 16.96 11.01 18.03 11.01L18.97 11.01L18.98 8.94Z" />
				</g>
			</g>
		</g>
	</g>
</svg>