<svg xmlns="http://www.w3.org/2000/svg" viewBox="0 0 32 32" width="32" height="32">
	<style>
		tspan { white-space:pre }
		.shp0 { fill: #bdd1df } 
		.shp1 { fill: #ffffff } 
	</style>
	<g id="Team">
		<g id="1">
			<g id="Contacts">
				<g id="LinkedIn icon">
					<path id="Base" class="shp0" d="M16 0C24.84 0 32 7.16 32 16C32 24.84 24.84 32 16 32C7.16 32 0 24.84 0 16C0 7.16 7.16 0 16 0Z" />
					<path id="LinkedIn icon" class="shp1" d="M12.46 8.92C12.46 9.89 11.76 10.61 10.57 10.61C9.44 10.61 8.69 9.89 8.69 8.92C8.69 7.92 9.44 7.21 10.59 7.21C11.74 7.21 12.44 7.92 12.46 8.92ZM9 23.01L9 11.99L12.01 11.99L12.01 23.01L9 23.01ZM14.02 11.99L16.7 11.99L17.02 13.11C17.47 12.4 18.43 11.61 20.25 11.61C22.47 11.61 24.01 12.9 24.01 16.1L24.01 22.98L21.01 22.98L21.01 16.58C21.01 15.18 20.04 14.23 18.82 14.23C17.89 14.23 17.35 14.87 17.1 15.49C17.01 15.71 16.99 16.02 16.99 16.33L16.99 22.98L14.02 22.98L14.02 11.99Z" />
				</g>
			</g>
		</g>
	</g>
</svg>