<svg xmlns="http://www.w3.org/2000/svg" viewBox="0 0 117 37" width="117" height="37">
	<style>
		tspan { white-space:pre }
		.shp0 { fill: #ffffff } 
	</style>
	<g id="Welcome">
		<path id="logo" class="shp0" d="M33.34 26.38L32.19 32.47C27.17 35.2 22.67 36.79 16.76 36.99C6.72 37.32 -0.02 31.4 -0.02 21.04C-0.02 8.93 8.31 0.57 20.68 0.71C26.7 0.78 30.87 2.76 32.72 4.02L29.37 11.65C27.87 10.92 25.05 10.41 22.67 10.41C16.56 10.41 13.57 14.38 13.4 19.5C13.23 24.79 16.5 28.3 21.34 28.76C27.78 29.38 31.75 27.18 33.34 26.38ZM55.79 28.26C55.54 30.09 56.21 31.21 60.45 29.36L61.97 33.86C56.67 36.35 53.46 36.99 51.34 36.99C48.13 36.99 46.22 35.67 45.5 33.77C43.17 35.93 40.72 36.99 37.92 36.99C33.43 36.99 30.72 33.68 31.36 29.24L33.52 13.99L43.76 13.99L41.94 26.83C41.77 27.97 42.49 28.9 43.55 28.9C44.57 28.9 45.54 27.97 45.71 26.83L47.53 13.99L57.78 13.99L55.79 28.26ZM76.16 16.2L77.68 5.14L87.93 5.14L84.67 28.43C84.46 30.09 85.21 31.32 89.45 29.03L91.12 33.79C89.45 34.76 85.3 37.06 80.22 36.99C77.09 36.95 75.1 35.55 74.42 33.47C72.64 35.55 70.48 36.99 67.18 36.99C62.44 36.99 59.69 32.58 59.69 27.08C59.69 19.33 64.64 13.44 70.82 13.44C73.28 13.44 74.93 14.5 76.16 16.2ZM75.78 24.58C75.78 22.8 74.8 21.4 73.28 21.4C71.29 21.4 69.72 23.44 69.72 25.77C69.72 27.54 70.65 28.94 72.22 28.94C74.17 28.94 75.78 26.91 75.78 24.58ZM105.5 16.2L105.8 13.99L116.05 13.99L114.01 28.43C113.8 30.09 114.82 30.38 116.39 30L116.02 34.39C113.84 36.11 111.69 36.99 109.57 36.99C106.43 36.99 104.44 35.55 103.77 33.47C101.99 35.59 99.74 36.99 96.53 36.99C91.78 36.99 89.03 32.58 89.03 27.08C89.03 19.5 93.98 13.44 100.17 13.44C102.62 13.44 104.27 14.5 105.5 16.2ZM105.12 24.58C105.12 22.8 104.15 21.4 102.62 21.4C100.63 21.4 99.07 23.44 99.07 25.77C99.07 27.54 100 28.94 101.56 28.94C103.51 28.94 105.12 26.91 105.12 24.58Z" />
	</g>
</svg>