<svg xmlns="http://www.w3.org/2000/svg" viewBox="0 0 32 32" width="32" height="32">
	<style>
		tspan { white-space:pre }
		.shp0 { fill: #bdd1df } 
		.shp1 { fill: #ffffff } 
	</style>
	<g id="Team">
		<g id="1">
			<g id="Contacts">
				<g id="Mail icon">
					<path id="Base" class="shp0" d="M16 0C24.84 0 32 7.16 32 16C32 24.84 24.84 32 16 32C7.16 32 0 24.84 0 16C0 7.16 7.16 0 16 0Z" />
					<path id="Mail" class="shp1" d="M8.61 12.18C9.1 12.45 14.85 16.19 15.1 16.33C15.35 16.47 15.68 16.53 16 16.53C16.33 16.53 16.66 16.47 16.91 16.33C17.16 16.19 22.91 12.45 23.4 12.18C23.89 11.91 24.35 11.06 23.45 11.06L8.56 11.06C7.66 11.06 8.12 11.91 8.61 12.18ZM23.6 14.24C23.05 14.54 17.25 18.21 16.91 18.39C16.57 18.57 16.33 18.59 16 18.59C15.68 18.59 15.44 18.57 15.1 18.39C14.76 18.21 8.96 14.54 8.4 14.24C8.01 14.03 8.02 14.27 8.02 14.46C8.02 14.65 8.02 22.02 8.02 22.02C8.02 22.45 8.57 23.01 9.01 23.01L23 23.01C23.43 23.01 23.99 22.45 23.99 22.02C23.99 22.02 23.99 14.65 23.99 14.46C23.99 14.27 23.99 14.03 23.6 14.24Z" />
				</g>
			</g>
		</g>
	</g>
</svg>