<svg xmlns="http://www.w3.org/2000/svg" viewBox="0 0 32 32" width="32" height="32">
	<style>
		tspan { white-space:pre }
		.shp0 { fill: #bdd1df } 
		.shp1 { fill: #ffffff } 
	</style>
	<g id="Team">
		<g id="1">
			<g id="Contacts">
				<g id="Twitter icon">
					<path id="Base" class="shp0" d="M16 0C24.84 0 32 7.16 32 16C32 24.84 24.84 32 16 32C7.16 32 0 24.84 0 16C0 7.16 7.16 0 16 0Z" />
					<path id="Twitter" class="shp1" d="M24.98 11.66C24.36 11.94 23.69 12.13 22.98 12.21C23.7 11.77 24.26 11.08 24.52 10.26C23.84 10.66 23.1 10.96 22.3 11.11C21.67 10.43 20.76 10 19.76 10C17.84 10 16.28 11.58 16.28 13.53C16.28 13.81 16.31 14.08 16.37 14.34C13.48 14.19 10.91 12.78 9.2 10.64C8.9 11.17 8.73 11.77 8.73 12.42C8.73 13.65 9.34 14.73 10.27 15.36C9.7 15.35 9.17 15.19 8.7 14.92C8.7 14.94 8.7 14.95 8.7 14.97C8.7 16.68 9.9 18.11 11.49 18.43C11.2 18.51 10.89 18.56 10.57 18.56C10.35 18.56 10.13 18.54 9.92 18.49C10.36 19.9 11.65 20.92 13.17 20.95C11.98 21.9 10.48 22.46 8.85 22.46C8.56 22.46 8.29 22.45 8.02 22.41C9.56 23.42 11.39 24 13.35 24C19.76 24 23.26 18.61 23.26 13.94C23.26 13.79 23.25 13.64 23.25 13.49C23.93 12.99 24.52 12.36 24.98 11.66Z" />
				</g>
			</g>
		</g>
	</g>
</svg>